<svg id="Øsm" xmlns="http://www.w3.org/2000/svg" width="58.46mm" height="16.15mm" viewBox="0 0 165.72 45.79"><defs><style>.cls-1{fill:#e76126;}.cls-2{fill:#2e2014;}</style></defs><title>logo-black</title><g id="New_Symbol_15" data-name="New Symbol 15"><polygon class="cls-1" points="1.72 1.21 42.1 1.21 42.56 1.67 42.56 4.66 25.35 21.86 25.35 24.16 42.56 41.37 42.56 44.35 42.1 44.81 1.72 44.81 1.26 44.35 1.26 1.67 1.72 1.21"/></g><g id="Kalklandet_navn_hvid_1" data-name="Kalklandet_navn_hvid 1"><path class="cls-2" d="M49.92,15.92l.35.41v5.72H51l4.47-6.13H57.7l.34.31v1.06L53.92,23.2v.28L58.21,29v1.1l-.36.35H55.58l-4.19-5.26H50.27v4.95l-.35.31H47.59l-.32-.31V16.23l.32-.31Z"/><path class="cls-2" d="M87.56,15.92l.34.41v5.72h.74l4.47-6.13h2.22l.34.31v1.06L91.56,23.2v.28L95.84,29v1.1l-.36.35H93.22L89,25.19H87.9v4.95l-.34.31H85.22l-.32-.31V16.23l.32-.31Z"/><path class="cls-2" d="M72.19,30.45h-3l-.76-3.4H63.2l-.77,3.4h-3V30l3.44-14h5.84l3.45,14Zm-4.34-6-1.3-6H65.11l-1.31,6Z"/><path class="cls-2" d="M83,27.88v2.26l-.42.31H74.17l-.32-.31V16.25l.35-.33h2.43l.34.31V27.6h5.64Z"/><path class="cls-2" d="M115,15.9h-4.21l-3.3,14.37v.16h1.82l.94-4.08h5.29l.94,4.08h1.81v-.18Q116.59,23.1,115,15.9Zm-4.38,8.86,1.63-7.33h1.29l1.63,7.33Z"/><path class="cls-2" d="M137.91,15.9h-5l-.2.17V30.29s.14.16.16.16H138a3.66,3.66,0,0,0,3.83-3.89V19.77a3.68,3.68,0,0,0-3.91-3.87Zm2.24,10.59a2,2,0,0,1-2.08,2.29h-3.69V17.6h3.67a2,2,0,0,1,2.1,2.28Z"/><path class="cls-2" d="M129.73,15.9h-1.46l-.16.14v11.8l-.35-1-5.3-10.9h-2.08l-.16.17v14.2l.16.16h1.48l.14-.16V18.57l.3.94,5.29,10.9,2.14,0,.14-.18V16Z"/><path class="cls-2" d="M160.07,30.43l.16-.16V17.72h3.55l.2-.2V16l-.14-.14H155l-.15.17v1.51l.15.14h3.41V30.43Z"/><path class="cls-2" d="M106.32,28.67H100V16.07a1.2,1.2,0,0,1-.11-.17H98.24l-.15.17v14.2l.15.16h8.08l.15-.16V28.83Z"/><polygon class="cls-2" points="144.31 22.03 144.31 24.07 152.22 24.07 152.36 23.9 152.36 22.19 152.22 22.03 144.31 22.03"/><polygon class="cls-2" points="144.31 28.47 144.31 30.23 144.52 30.43 152.69 30.43 152.83 30.27 152.83 28.65 152.67 28.47 144.31 28.47"/><polygon class="cls-2" points="152.63 15.89 144.42 15.89 144.26 16.04 144.26 17.93 145.87 17.93 145.87 17.93 152.61 17.93 152.78 17.77 152.78 16.04 152.63 15.89"/></g></svg>